<svg viewBox="0 0 64 64" xmlns="http://www.w3.org/2000/svg">
  <!-- Explosion background -->
  <defs>
    <radialGradient id="explosionGradient" cx="50%" cy="50%">
      <stop offset="0%" style="stop-color:#FFD700;stop-opacity:1" />
      <stop offset="50%" style="stop-color:#FF8C00;stop-opacity:1" />
      <stop offset="100%" style="stop-color:#FF4500;stop-opacity:1" />
    </radialGradient>
  </defs>
  
  <!-- Explosion starburst shape -->
  <path d="M 32,4 L 36,24 L 52,8 L 40,28 L 60,28 L 44,36 L 56,52 L 38,42 L 36,60 L 32,42 L 28,60 L 26,42 L 8,52 L 20,36 L 4,28 L 24,28 L 12,8 L 28,24 Z" 
        fill="url(#explosionGradient)" 
        stroke="#FF4500" 
        stroke-width="1"/>
  
  <!-- Modern WiFi symbol -->
  <!-- Outer arc - wider, thinner -->
  <path d="M 14,38 A 18 18 0 0 1 50 38" 
        fill="none" 
        stroke="#FFFFFF" 
        stroke-width="2.5" 
        stroke-linecap="round"/>
  
  <!-- Middle arc -->
  <path d="M 19,39 A 13 13 0 0 1 45 39" 
        fill="none" 
        stroke="#FFFFFF" 
        stroke-width="2.5" 
        stroke-linecap="round"/>
  
  <!-- Inner arc -->
  <path d="M 24,40 A 8 8 0 0 1 40 40" 
        fill="none" 
        stroke="#FFFFFF" 
        stroke-width="2.5" 
        stroke-linecap="round"/>
  
  <!-- Modern center dot - rounded square -->
  <rect x="29" y="42" width="6" height="6" rx="1.5" fill="#FFFFFF"/>
</svg>
